<svg width="166" height="156" viewBox="0 0 166 156" fill="none" xmlns="http://www.w3.org/2000/svg">
<path d="M35.2253 82.5C31.6253 16.9 72.0586 0.166667 92.7253 0C131.525 0 143.892 44.3333 145.225 66.5C145.625 122.1 112.725 142 96.2253 145C53.8253 151 37.892 105.833 35.2253 82.5Z" fill="black" fill-opacity="0.2"/>
<path d="M26.731 54.8357C14.5992 53.0517 13.6476 58.8499 14.6884 61.9721C31.102 65.1834 32.5292 76.9882 31.1912 82.4891C9.06849 92.7577 1.45639 117.692 0.415671 128.875C-3.86614 152.069 25.9876 154.001 41.4497 152.069C75.7042 152.069 85.4572 139.877 86.0519 133.782C90.3337 120.579 66.7243 92.599 54.3844 80.259C52.2434 73.1227 59.4393 68.6624 63.3048 67.3244C70.4411 70.1789 72.2252 64.9456 72.2252 61.9721C72.2252 54.4789 66.2783 54.0924 63.3048 54.8357C59.7366 54.8357 54.3844 64.6482 54.3844 51.7136C46.8912 38.8681 40.5576 50.8215 38.7735 57.0659C38.7735 67.3244 34.3133 55.9508 26.731 54.8357Z" fill="#E4CDB2"/>
<path d="M26.731 54.8357C14.5992 53.0517 13.6476 58.8499 14.6884 61.9721C31.102 65.1834 32.5292 76.9882 31.1912 82.4891C9.06849 92.7577 1.45639 117.692 0.415671 128.875C-3.86614 152.069 25.9876 154.001 41.4497 152.069C75.7042 152.069 85.4572 139.877 86.0519 133.782C90.3337 120.579 66.7243 92.599 54.3844 80.259C52.2434 73.1227 59.4393 68.6624 63.3048 67.3244C70.4411 70.1789 72.2252 64.9456 72.2252 61.9721C72.2252 54.4789 66.2783 54.0924 63.3048 54.8357C59.7366 54.8357 54.3844 64.6482 54.3844 51.7136C46.8912 38.8681 40.5576 50.8215 38.7735 57.0659C38.7735 67.3244 34.3133 55.9508 26.731 54.8357Z" fill="black" fill-opacity="0.2"/>
<path d="M37.2253 84.5C33.6253 18.9 74.0586 2.16667 94.7253 2C133.525 2 145.892 46.3333 147.225 68.5C147.625 124.1 114.725 144 98.2253 147C55.8253 153 39.892 107.833 37.2253 84.5Z" fill="#333333"/>
<path d="M39.7253 84C39.7253 19.5 74.2253 4 94.7253 2C133.525 2 145.892 46.3333 147.225 68.5C147.625 124.1 114.725 144 98.2253 147C56.2253 149.5 42.392 107.333 39.7253 84Z" fill="white"/>
<path d="M42.7253 83.5001C41.2253 28.5001 72.2253 5.5 94.2253 5.5C131.725 5.5 143.725 44.5 145.225 68.0001C145.625 123.6 113.725 140.5 97.2253 143.5C58.7253 146.5 45.392 106.833 42.7253 83.5001Z" fill="#333333"/>
<path d="M59.7254 81C57.2254 48.5 78.2253 23.5 96.2253 23.5C120.725 23.4999 134.225 47 134.225 71C134.225 108 113.725 125 96.2254 125C72.2254 122 62.3921 104.333 59.7254 81Z" fill="white"/>
<path d="M74.7253 77C74.7254 55.9762 89.2253 37.5 101.725 37.5C114.225 37.5 126.557 50.537 125.225 74.5C124.225 92.5 114.725 108.5 97.2253 108.5C85.7253 108.5 74.7253 96 74.7253 77Z" fill="#333333"/>
<path d="M85.7253 75.5C85.7254 57.5 95.7253 48.5 102.725 48.5C109.725 48.5 118.892 54.5 117.725 75.5C116.948 89.5 110.725 95.5833 99.7253 96.5C91.753 97.1644 85.7253 82.5 85.7253 75.5Z" fill="white"/>
<path d="M97.2253 74.5001C97.2253 71 99.2253 66.0001 102.725 66.0001C106.225 66.0001 109.225 67.5 109.225 73.5001C109.225 80.5 106.225 81.5 103.225 81.5C99.5853 81.5 97.2253 78.0001 97.2253 74.5001Z" fill="#C31F46"/>
<path d="M27.731 57.8357C15.5992 56.0517 14.6476 61.8499 15.6884 64.9721C32.102 68.1834 33.5292 79.9882 32.1912 85.4891C10.0685 95.7577 2.45639 120.692 1.41567 131.875C-2.86614 155.069 26.9876 157.001 42.4497 155.069C76.7042 155.069 86.4572 142.877 87.0519 136.782C91.3337 123.579 67.7243 95.599 55.3844 83.259C53.2434 76.1227 60.4393 71.6624 64.3048 70.3244C71.4411 73.1789 73.2252 67.9456 73.2252 64.9721C73.2252 57.4789 67.2783 57.0924 64.3048 57.8357C60.7366 57.8357 55.3844 67.6482 55.3844 54.7136C47.8912 41.8681 41.5576 53.8215 39.7735 60.0659C39.7735 70.3244 35.3133 58.9508 27.731 57.8357Z" fill="#E4CDB2"/>
<path d="M31.2991 78.3528C33.7968 76.2119 38.8814 78.3528 41.1116 79.6908C52.5297 75.7659 55.6816 76.5687 55.8303 77.4607C57.9712 79.6016 55.8303 80.7316 54.4923 81.0289C58.0604 83.1698 56.871 84.5971 55.8303 85.0431C54.4031 87.184 48.0993 85.0431 45.1258 83.705C34.0645 88.7005 30.7044 86.6785 30.4071 85.0431C29.6935 82.9022 31.2991 81.4749 32.1911 81.0289C30.407 79.2448 30.853 78.5014 31.2991 78.3528Z" fill="#CCA579"/>
<path d="M41.5576 101.546V103.776C38.8815 103.776 33.5292 105.114 33.5292 110.466C33.5292 115.819 38.8815 119.535 41.5576 120.725C49.7644 123.579 49.4374 126.969 48.248 128.307C43.9661 131.519 38.4355 127.564 36.2054 125.185C33.3508 124.828 32.3398 127.118 32.1912 128.307C35.7593 133.66 41.7063 134.7 44.2338 134.552L45.1258 137.228H48.248V134.552C50.7457 133.838 53.7489 130.091 54.9383 128.307C57.436 121.885 50.9241 118.197 47.3559 117.157C38.7923 115.729 38.7328 112.102 39.7735 110.466C41.2008 106.898 48.3966 108.98 51.8161 110.466C52.7082 110.169 54.3139 109.217 53.6002 107.79C52.8866 106.363 47.6533 104.519 45.1258 103.776V101.546H41.5576Z" fill="#63766B"/>
<path d="M146.225 60L140.225 67.5V70L146.225 75.5H165.725L158.725 66L163.225 57L146.225 60Z" fill="#C31F46"/>
<path d="M159.225 65C125.625 68.2 106.559 72 101.225 73.5C112.425 75.1 144.559 69.5 159.225 66.5V65Z" fill="#FFF3D0"/>
</svg>
