<svg width="124" height="177" viewBox="0 0 124 177" fill="none" xmlns="http://www.w3.org/2000/svg">
<path d="M11.0765 81.4511C4.05379 69.1958 -1.64703 47.9072 31.7316 60.796C53.7638 49.9177 112.287 42.2064 123.44 92.6049C124.817 100.729 124.514 120.448 112.287 134.328L108.982 156.636C106.366 158.013 100.141 160.519 96.1757 159.527C94.661 159.114 90.9706 157.049 88.3267 152.092C86.2612 152.092 82.378 154.57 83.3695 164.485C82.8187 167.927 79.4863 174.647 70.5633 173.986C66.0192 173.711 56.9309 171.177 56.9309 163.245C56.3801 159.527 53.4609 152.092 46.1903 152.092C45.6395 155.947 42.6376 163.245 35.0365 161.593C31.1809 161.731 23.1392 158.701 21.8172 145.482C17.6862 145.482 8.68057 143.251 5.70624 134.328C3.64072 130.886 1.24473 122.018 8.18485 114.086C7.35866 107.339 7.19345 91.7787 13.1421 83.5167L11.0765 81.4511Z" fill="#F5B9D8"/>
<path d="M11.0765 81.4511C4.05379 69.1958 -1.64703 47.9072 31.7316 60.796C53.7638 49.9177 112.287 42.2064 123.44 92.6049C124.817 100.729 124.514 120.448 112.287 134.328L108.982 156.636C106.366 158.013 100.141 160.519 96.1757 159.527C94.661 159.114 90.9706 157.049 88.3267 152.092C86.2612 152.092 82.378 154.57 83.3695 164.485C82.8187 167.927 79.4863 174.647 70.5633 173.986C66.0192 173.711 56.9309 171.177 56.9309 163.245C56.3801 159.527 53.4609 152.092 46.1903 152.092C45.6395 155.947 42.6376 163.245 35.0365 161.593C31.1809 161.731 23.1392 158.701 21.8172 145.482C17.6862 145.482 8.68057 143.251 5.70624 134.328C3.64072 130.886 1.24473 122.018 8.18485 114.086C7.35866 107.339 7.19345 91.7787 13.1421 83.5167L11.0765 81.4511Z" fill="black" fill-opacity="0.2"/>
<path d="M87.2919 27.5633C87.2921 12.0465 80.2231 3.5985 75.3957 0.667545C62.9821 -2.22892 52.1205 4.80538 49.017 12.0465C43.2241 19.4946 44.5345 34.2873 45.3965 40.494C48.293 57.8728 58.672 61.8727 63.4995 61.7003C71.775 61.4047 85.7401 53.4247 87.2919 27.5633Z" fill="#FFE083"/>
<path d="M87.2919 27.5633C87.2921 12.0465 80.2231 3.5985 75.3957 0.667545C62.9821 -2.22892 52.1205 4.80538 49.017 12.0465C43.2241 19.4946 44.5345 34.2873 45.3965 40.494C48.293 57.8728 58.672 61.8727 63.4995 61.7003C71.775 61.4047 85.7401 53.4247 87.2919 27.5633Z" fill="black" fill-opacity="0.2"/>
<path d="M7.50817 84.1738C0.485427 71.9184 -5.21539 50.6299 28.1633 63.5186C50.1954 52.6403 108.718 44.929 119.872 95.3275C121.249 103.452 120.946 123.171 108.718 137.051L105.413 159.358C102.797 160.735 96.5731 163.242 92.6073 162.25C91.0926 161.837 87.4022 159.772 84.7584 154.814C82.6928 154.814 78.8097 157.293 79.8011 167.207C79.2503 170.65 75.918 177.37 66.995 176.709C62.4508 176.433 53.3626 173.9 53.3626 165.968C52.8118 162.25 49.8925 154.814 42.6219 154.814C42.0711 158.67 39.0692 165.968 31.4681 164.316C27.6125 164.453 19.5708 161.424 18.2489 148.205C14.1178 148.205 5.11221 145.974 2.13788 137.051C0.0723639 133.608 -2.32363 124.74 4.61649 116.809C3.7903 110.062 3.62509 94.5013 9.57377 86.2393L7.50817 84.1738Z" fill="#F5B9D8"/>
<path d="M73.1915 85C65.5904 75.7465 52.9495 77.2887 47.5792 79.2165C67.7386 84.8347 73.0538 104.691 73.1915 113.917C79.8012 94.7492 75.9455 86.6524 73.1915 85Z" fill="#FBACD2"/>
<path d="M8.33444 85C12.3002 77.3989 24.0323 73.8462 29.4027 73.02C20.1491 62.1141 11.5015 60.7646 8.33444 61.4531C1.39432 63.7665 5.44272 78.1149 8.33444 85Z" fill="#FBACD2"/>
<path d="M49.6447 72.1938L38.9041 70.5414C46.8356 62.9403 67.5458 58.8368 76.9095 57.7352L85.1715 60.2138C73.2742 57.9005 56.5298 67.2366 49.6447 72.1938Z" fill="#EF5DA8"/>
<path d="M28.5766 131.267C26.9242 119.701 16.1835 111.852 4.61659 116.809C-2.32353 124.74 0.347868 134.159 2.55108 137.877C6.18638 146.47 14.531 148.067 18.249 147.792C26.8415 147.131 29.9536 136.5 28.5766 131.267Z" fill="#FBACD2"/>
<path d="M9.16054 130.441C8.16909 127.136 5.44261 127.136 4.20331 127.55C3.21186 130.193 4.61641 131.681 5.44261 132.094C8.74743 133.416 9.29824 131.543 9.16054 130.441Z" fill="#EF5DA8"/>
<path d="M14.531 134.572C13.5395 131.598 16.8719 131.681 18.662 132.094C20.3144 133.416 19.9013 135.398 19.4882 136.225C16.8443 137.547 15.0818 135.674 14.531 134.572Z" fill="#EF5DA8"/>
<path d="M46.753 106.481C47.414 102.846 45.376 100.836 44.2744 100.285C41.961 99.2933 39.7302 100.973 38.9041 101.937C37.2517 104.912 39.0418 107.308 40.1434 108.134C44.1092 109.456 46.2022 107.583 46.753 106.481Z" fill="#333333"/>
<path d="M13.7049 95.3276C14.0354 92.6837 17.1474 92.0227 18.6621 92.0227C21.306 94.3361 20.3144 96.8423 19.4882 97.8062C18.8272 99.1281 16.4589 100.009 15.3573 100.285C13.3744 99.6238 13.4295 96.7046 13.7049 95.3276Z" fill="#333333"/>
<path d="M50.9958 1.27491C29.893 9.96432 30.1909 27.0352 32.3757 41.6186C34.2202 53.931 42.7202 66.3445 61.3403 64.3766C46.7423 62.4725 43.927 48.3425 42.7202 41.6186C41.065 6.0334 62.03 1.27491 72.7193 3.34382C64.8575 -1.20778 54.9612 0.0680503 50.9958 1.27491Z" fill="#FFD34D"/>
<path d="M50.9958 1.27491C29.893 9.96432 30.1909 27.0352 32.3757 41.6186C34.2202 53.931 42.7202 66.3445 61.3403 64.3766C46.7423 62.4725 43.927 48.3425 42.7202 41.6186C41.065 6.0334 62.03 1.27491 72.7193 3.34382C64.8575 -1.20778 54.9612 0.0680503 50.9958 1.27491Z" fill="#FFD34D"/>
<path d="M84.6156 30.2396C84.6158 14.7228 77.5469 6.27475 72.7194 3.3438C60.3059 0.44733 49.4442 7.48163 46.3408 14.7228C40.5478 22.1709 41.8582 36.9635 42.7203 43.1703C45.6167 60.5491 55.9957 64.549 60.8232 64.3765C69.0987 64.081 83.0639 56.1009 84.6156 30.2396Z" fill="#FFE083"/>
</svg>
