<svg width="186" height="143" viewBox="0 0 186 143" fill="none" xmlns="http://www.w3.org/2000/svg">
<path d="M0 23.3033C44.5323 14.2939 141.628 -2.02605 173.753 4.76963L183.792 115.199L19.3059 143L0 23.3033Z" fill="white"/>
<path d="M0 23.3033C44.5323 14.2939 141.628 -2.02605 173.753 4.76963L183.792 115.199L19.3059 143L0 23.3033Z" fill="black" fill-opacity="0.2"/>
<path d="M1.54456 20.1463C46.0769 11.1368 143.173 -5.18311 175.298 1.61257L185.337 112.042L20.8505 139.843L1.54456 20.1463Z" fill="white"/>
<path d="M64.0957 107.409L49.4232 110.498L45.562 91.192L60.2345 87.3308L64.0957 107.409Z" fill="#958FDA"/>
<path d="M89.5794 103.548L72.5902 105.865L67.1846 68.7972L82.6293 65.7082L89.5794 103.548Z" fill="#4D45A8"/>
<path d="M118.924 98.9144L101.163 101.231L91.1239 46.4023L108.885 43.3134L118.924 98.9144Z" fill="#6E67C2"/>
<path d="M152.903 93.5088L134.369 96.5977L122.786 24.7797L142.092 21.6907L152.903 93.5088Z" fill="#534CB6"/>
<path d="M23.1671 35.591C28.3726 55.2466 39.6758 100.371 43.2453 123.626" stroke="#828282" stroke-width="1.54447"/>
<path d="M28.5728 114.359C64.6105 107.409 142.555 93.5087 166.031 93.5087" stroke="#828282" stroke-width="1.54447"/>
</svg>
