<svg width="50" height="35" viewBox="0 0 50 35" fill="none" xmlns="http://www.w3.org/2000/svg">
<path d="M18.5302 25.5156C9.58689 29.2612 -1.14507 21.9332 5.11524 12.0627C1.51307 8.57319 -3.0828 2.64097 7.35105 6.82842C9.21425 5.08365 14.2821 2.26708 19.6481 4.95902C22.3808 1.5941 27.3244 -2.74289 25.2377 6.82842C28.8398 11.1904 32.3178 21.1106 17.4123 25.8963C14.4312 26.5194 10.2576 28.663 17.4123 32.2522C18.6544 30.6321 21.9585 27.7657 25.2377 29.2612C26.4798 30.3828 32.2433 30.4576 34.9263 27.7657" stroke="#63233A" stroke-width="1.49552"/>
<path d="M27.8461 10.5672C33.6841 8.07467 45.2856 6.82839 43.4969 21.7836C42.5032 23.653 41.6337 27.9152 46.1054 30.009L42.0064 33C41.8822 32.3769 40.963 30.9063 38.28 30.009C35.5473 29.1366 31.1253 25.971 35.2989 20.2881" stroke="#63233A" stroke-width="1.49552"/>
<path d="M42.7516 13.5582C42.2548 12.8105 43.0498 11.0906 44.2422 10.1933C45.1117 9.81943 46.9997 9.37077 47.5959 10.5672C47.9686 11.4396 48.3412 13.2591 46.8507 13.5582C45.2359 12.9351 43.4224 10.9411 49.0865 7.95004" stroke="#63233A" stroke-width="1.49552"/>
<path d="M9.58688 18.4187C8.99066 16.325 11.5743 14.8045 12.9406 14.306C18.3066 12.8105 19.3997 14.9292 19.2755 16.1754C19.2755 18.5683 17.0396 19.665 15.9217 19.9142C11.7482 21.7089 9.95952 19.665 9.58688 18.4187Z" stroke="#63233A" stroke-width="1.49552"/>
<ellipse cx="9.21424" cy="13.1844" rx="1.11791" ry="1.12164" fill="#63233A"/>
<ellipse cx="17.4123" cy="10.9411" rx="1.11791" ry="1.12164" fill="#63233A"/>
<ellipse cx="12.1954" cy="17.6709" rx="1.11791" ry="1.12164" fill="#63233A"/>
<ellipse cx="16.2117" cy="16.3291" rx="1.11791" ry="1.12164" fill="#63233A"/>
<path d="M31.1494 12.4598C32.1068 12.0005 34.5609 11.2596 36.7177 11.9711" stroke="#63233A" stroke-width="1.49552"/>
</svg>
